<?xml version="1.0" encoding="utf-8"?>
<!-- Generator: Adobe Illustrator 22.1.0, SVG Export Plug-In . SVG Version: 6.00 Build 0)  -->
<svg xmlns="http://www.w3.org/2000/svg" xmlns:xlink="http://www.w3.org/1999/xlink" version="1.1" id="Layer_1" x="0px" y="0px" viewBox="0 0 256 256" style="enable-background:new 0 0 256 256;" xml:space="preserve" width="512" height="512">
<style type="text/css">
	.st0{fill:#FFDF74;}
	.st1{fill:#FCE575;}
	.st2{fill:#FFD551;}
	.st3{fill:#F9BB32;}
	.st4{fill:#FFF4C1;}
	.st5{fill:#DB9C2E;}
	.st6{fill:#FFC34C;}
	.st7{fill:#FFEA63;}
	.st8{fill:#A56021;}
	.st9{fill:#E58D23;}
	.st10{fill:#CCC033;}
	.st11{fill:#99AF17;}
	.st12{fill:#FCDA4F;}
	.st13{fill:#8C4C17;}
	.st14{fill:#BF6C0D;}
	.st15{fill:#FFA730;}
	.st16{fill:#FF624B;}
	.st17{fill:#FCF9DE;}
	.st18{fill:#FFEACF;}
	.st19{fill:#FFD59A;}
	.st20{fill:#EACF32;}
	.st21{fill:#FF4B34;}
	.st22{fill:#FF9079;}
	.st23{fill:#FFB74B;}
</style>
<g>
	<g>
		<g>
			<rect x="62.333" y="8.016" class="st8" width="131.333" height="240"/>
		</g>
	</g>
	<g>
		<g>
			<path class="st9" d="M179,78.016H77c-3.314,0-6-2.686-6-6v-64h114v64C185,75.33,182.314,78.016,179,78.016z"/>
		</g>
	</g>
	<g>
		<g>
			<path class="st15" d="M173,73.016h-17.407c-1.657,0-3-1.343-3-3s1.343-3,3-3H173c0.551,0,1-0.449,1-1v-18.72c0-1.657,1.343-3,3-3     s3,1.343,3,3v18.72C180,69.876,176.86,73.016,173,73.016z"/>
		</g>
	</g>
	<g>
		<g>
			<path class="st9" d="M179,202.016H77c-3.314,0-6-2.686-6-6v-92c0-3.314,2.686-6,6-6h102c3.314,0,6,2.686,6,6v92     C185,199.33,182.314,202.016,179,202.016z"/>
		</g>
	</g>
	<g>
		<g>
			<path class="st15" d="M173,197.016h-17.407c-1.657,0-3-1.343-3-3s1.343-3,3-3H173c0.551,0,1-0.449,1-1v-21.263     c0-1.657,1.343-3,3-3s3,1.343,3,3v21.263C180,193.876,176.86,197.016,173,197.016z"/>
		</g>
	</g>
	<g>
		<g>
			<path class="st9" d="M185,248.016H71v-20c0-3.314,2.686-6,6-6h102c3.314,0,6,2.686,6,6V248.016z"/>
		</g>
	</g>
	<g>
		<g>
			<path class="st15" d="M177,243.016c-1.657,0-3-1.343-3-3v-6c0-0.551-0.449-1-1-1h-17.407c-1.657,0-3-1.343-3-3s1.343-3,3-3H173     c3.86,0,7,3.14,7,7v6C180,241.673,178.657,243.016,177,243.016z"/>
		</g>
	</g>
	<g>
		<g>
			<path class="st14" d="M99,72.016v-64H71v64c0,3.313,2.686,6,6,6h28C101.686,78.016,99,75.33,99,72.016z"/>
		</g>
	</g>
	<g>
		<g>
			<path class="st14" d="M99,196.016v-92c0-3.314,2.686-6,6-6H77c-3.314,0-6,2.686-6,6v92c0,3.313,2.686,6,6,6h28     C101.686,202.016,99,199.33,99,196.016z"/>
		</g>
	</g>
	<g>
		<g>
			<path class="st15" d="M147.667,36.742h-15.333c-4.418,0-8-3.582-8-8V7.984h31.333v20.758     C155.667,33.16,152.085,36.742,147.667,36.742z"/>
		</g>
	</g>
	<g>
		<g>
			<circle class="st9" cx="86.425" cy="179.19" r="12"/>
		</g>
	</g>
	<g>
		<g>
			<g>
				<path class="st8" d="M110.667,194.036H102c-1.104,0-2-0.896-2-2s0.896-2,2-2h7.112l7.616-29.934      c0.272-1.071,1.359-1.718,2.432-1.445c1.07,0.272,1.717,1.361,1.445,2.432l-8,31.44      C112.379,193.416,111.581,194.036,110.667,194.036z"/>
			</g>
		</g>
	</g>
	<g>
		<g>
			<g>
				<path class="st8" d="M133.585,194.432c-0.544,0-1.087-0.221-1.481-0.656c-0.743-0.818-0.681-2.083,0.137-2.825l5.457-4.95      l-6.058-25.335c-0.257-1.074,0.406-2.153,1.48-2.41c1.08-0.252,2.154,0.406,2.411,1.48l6.333,26.485      c0.169,0.71-0.061,1.456-0.602,1.946l-6.333,5.746C134.546,194.261,134.065,194.432,133.585,194.432z"/>
			</g>
		</g>
	</g>
	<g>
		<g>
			<g>
				<path class="st8" d="M128,70.161h-9.667c-1.104,0-2-0.896-2-2s0.896-2,2-2h7.93l4.09-28.888c0.155-1.095,1.165-1.851,2.261-1.7      c1.094,0.155,1.855,1.167,1.7,2.261l-4.333,30.607C129.841,69.428,128.996,70.161,128,70.161z"/>
			</g>
		</g>
	</g>
	<g>
		<g>
			<path class="st14" d="M111.188,98.016c1.952,5.514,7.051,9.604,13.256,9.973c6.829,0.405,12.851-3.83,15.022-9.973H111.188z"/>
		</g>
	</g>
	<g>
		<g>
			<g>
				<path class="st8" d="M95.001,139.552c-0.591,0-1.174-0.261-1.568-0.757l-8.575-10.801c-0.687-0.864-0.542-2.123,0.323-2.81      c0.865-0.687,2.123-0.543,2.81,0.323l7.389,9.306l13.452-9.686c0.896-0.646,2.146-0.441,2.792,0.454      c0.646,0.896,0.442,2.146-0.455,2.792l-15,10.801C95.816,139.429,95.407,139.552,95.001,139.552z"/>
			</g>
		</g>
	</g>
	<g>
		<g>
			<path class="st9" d="M75.685,45.786c-1.662,0-3.245,0.338-4.685,0.95v22.101c1.44,0.611,3.023,0.95,4.685,0.95     c6.627,0,12-5.373,12-12S82.312,45.786,75.685,45.786z"/>
		</g>
	</g>
	<g>
		<g>
			<g>
				<path class="st8" d="M169.667,21.552c-1.104,0-2-0.853-2-1.906V9.923c0-1.053,0.896-1.906,2-1.906s2,0.853,2,1.906v9.723      C171.667,20.699,170.771,21.552,169.667,21.552z"/>
			</g>
		</g>
	</g>
	<g>
		<g>
			<g>
				<path class="st8" d="M109.534,18.139c-0.591,0-1.174-0.228-1.568-0.662l-6.009-6.623c-0.687-0.756-0.542-1.858,0.323-2.458      c0.866-0.601,2.124-0.475,2.81,0.283l4.823,5.315l8.962-5.647c0.897-0.565,2.146-0.387,2.792,0.397      c0.645,0.784,0.442,1.878-0.454,2.443l-10.511,6.623C110.349,18.031,109.939,18.139,109.534,18.139z"/>
			</g>
		</g>
	</g>
	<g>
		<g>
			<path class="st8" d="M53.333,8.016c-1.105,0-2,0.898-2,2.005v19.603c0,1.085-0.897,1.967-2,1.967h-24c-1.103,0-2-0.883-2-1.967     V10.021c0-1.107-0.895-2.005-2-2.005h-9c-1.105,0-2,0.898-2,2.005v235.991c0,1.107,0.895,2.005,2,2.005h9     c1.105,0,2-0.897,2-2.005v-1.93v-19.736c0-1.085,0.897-1.967,2-1.967h24c1.103,0,2,0.883,2,1.967v19.736v1.93     c0,1.107,0.895,2.005,2,2.005h11v-240H53.333z M51.333,204.673c0,1.085-0.897,1.967-2,1.967h-24c-1.103,0-2-0.883-2-1.967     v-23.606c0-1.084,0.897-1.967,2-1.967h24c1.103,0,2,0.883,2,1.967V204.673z M51.333,161.395c0,1.084-0.897,1.967-2,1.967h-24     c-1.103,0-2-0.883-2-1.967v-23.606c0-1.085,0.897-1.967,2-1.967h24c1.103,0,2,0.883,2,1.967V161.395z M51.333,116.149     c0,1.084-0.897,1.967-2,1.967h-24c-1.103,0-2-0.883-2-1.967V92.542c0-1.085,0.897-1.967,2-1.967h24c1.103,0,2,0.883,2,1.967     V116.149z M51.333,72.87c0,1.085-0.897,1.967-2,1.967h-24c-1.103,0-2-0.883-2-1.967V49.263c0-1.084,0.897-1.967,2-1.967h24     c1.103,0,2,0.883,2,1.967V72.87z"/>
		</g>
	</g>
	<g>
		<g>
			<path class="st8" d="M234.667,8.016c-1.105,0-2,0.898-2,2.005v19.603c0,1.085-0.897,1.967-2,1.967h-24c-1.103,0-2-0.883-2-1.967     V10.021c0-1.107-0.895-2.005-2-2.005h-11v240h11c1.105,0,2-0.897,2-2.005v-1.93v-4.012v-15.724c0-1.085,0.897-1.967,2-1.967h24     c1.103,0,2,0.883,2,1.967v15.724v4.012v1.93c0,1.107,0.895,2.005,2,2.005h9c1.105,0,2-0.897,2-2.005V10.021     c0-1.107-0.895-2.005-2-2.005H234.667z M232.667,204.673c0,1.085-0.897,1.967-2,1.967h-24c-1.103,0-2-0.883-2-1.967v-23.606     c0-1.084,0.897-1.967,2-1.967h24c1.103,0,2,0.883,2,1.967V204.673z M232.667,161.395c0,1.084-0.897,1.967-2,1.967h-24     c-1.103,0-2-0.883-2-1.967v-23.606c0-1.085,0.897-1.967,2-1.967h24c1.103,0,2,0.883,2,1.967V161.395z M232.667,116.149     c0,1.084-0.897,1.967-2,1.967h-24c-1.103,0-2-0.883-2-1.967V92.542c0-1.085,0.897-1.967,2-1.967h24c1.103,0,2,0.883,2,1.967     V116.149z M232.667,72.87c0,1.085-0.897,1.967-2,1.967h-24c-1.103,0-2-0.883-2-1.967V49.263c0-1.084,0.897-1.967,2-1.967h24     c1.103,0,2,0.883,2,1.967V72.87z"/>
		</g>
	</g>
	<g>
		<g>
			<path class="st15" d="M130.834,160.742h-9.669c-5.982,0-10.832-4.85-10.832-10.832v-31.893c0-5.523,4.477-10,10-10h11.333     c5.523,0,10,4.477,10,10v31.893C141.667,155.892,136.817,160.742,130.834,160.742z"/>
		</g>
	</g>
	<g>
		<g>
			<g>
				<path class="st8" d="M155.667,143.552c-1.104,0-2-0.896-2-2v-8.863L127.238,121.8c-1.021-0.421-1.508-1.59-1.087-2.611      c0.42-1.021,1.588-1.51,2.611-1.088l27.667,11.399c0.75,0.31,1.238,1.039,1.238,1.85v10.202      C157.667,142.657,156.771,143.552,155.667,143.552z"/>
			</g>
		</g>
	</g>
	<g>
		<g>
			<g>
				<path class="st13" d="M38.333,206.64h-13c-1.103,0-2-0.883-2-1.967v-23.606c0-1.084,0.897-1.967,2-1.967h13v-15.738h-13      c-1.103,0-2-0.883-2-1.967v-23.606c0-1.085,0.897-1.968,2-1.968h13v-17.705h-13c-1.103,0-2-0.883-2-1.967V92.542      c0-1.085,0.897-1.968,2-1.968h13V74.837h-13c-1.103,0-2-0.883-2-1.967V49.264c0-1.084,0.897-1.967,2-1.967h13V31.591h-13      c-1.103,0-2-0.883-2-1.967V10.021c0-1.107-0.895-2.004-2-2.004h-9c-1.105,0-2,0.897-2,2.004v235.991      c0,1.107,0.895,2.004,2,2.004h9c1.105,0,2-0.897,2-2.004v-1.93v-19.736c0-1.084,0.897-1.967,2-1.967h13V206.64z"/>
			</g>
		</g>
	</g>
	<g>
		<g>
			<path class="st14" d="M105,222.016H77c-3.314,0-6,2.686-6,6v20h28v-20C99,224.702,101.686,222.016,105,222.016z"/>
		</g>
	</g>
	<g>
		<g>
			<g>
				<path class="st8" d="M147.26,71.785c-0.544,0-1.087-0.221-1.482-0.656c-0.742-0.818-0.681-2.083,0.138-2.825l5.457-4.95      l-6.059-25.335c-0.257-1.074,0.406-2.153,1.48-2.41c1.08-0.251,2.154,0.406,2.411,1.48l6.333,26.485      c0.169,0.71-0.061,1.456-0.602,1.946l-6.333,5.746C148.221,71.615,147.74,71.785,147.26,71.785z"/>
			</g>
		</g>
	</g>
</g>
</svg>
