<svg xmlns="http://www.w3.org/2000/svg" xmlns:xlink="http://www.w3.org/1999/xlink" viewBox="0 0 368.04 310.41"><defs><style>.cls-1{fill:url(#Dégradé_sans_nom_232);}.cls-2{fill:url(#Dégradé_sans_nom_162);}.cls-3{fill:url(#Dégradé_sans_nom_266);}.cls-4{fill:url(#Dégradé_sans_nom_289);}.cls-5{fill:url(#Dégradé_sans_nom_159);}.cls-6{fill:url(#Dégradé_sans_nom_109);}.cls-7{fill:url(#Dégradé_sans_nom_3);}</style><linearGradient id="Dégradé_sans_nom_232" x1="204.7" y1="140.81" x2="213.98" y2="140.81" gradientUnits="userSpaceOnUse"><stop offset="0" stop-color="#fff"/><stop offset="0" stop-color="#de2e29" stop-opacity="0.6"/><stop offset="0.01" stop-color="#de2f29"/><stop offset="0.01" stop-color="#eb542d" stop-opacity="0.64"/><stop offset="0.11" stop-color="#e84d2c" stop-opacity="0.98"/><stop offset="0.21" stop-color="#e23a2a"/><stop offset="0.39" stop-color="#ff9234" stop-opacity="0.9"/><stop offset="0.4" stop-color="#ff9434" stop-opacity="0.9"/><stop offset="0.66" stop-color="#ffcd3c" stop-opacity="0.9"/><stop offset="0.68" stop-color="#f8cd40" stop-opacity="0.9"/><stop offset="0.72" stop-color="#e6cd4c" stop-opacity="0.89"/><stop offset="0.75" stop-color="#c7ce5f" stop-opacity="0.87"/><stop offset="0.8" stop-color="#9cce79" stop-opacity="0.85"/><stop offset="0.84" stop-color="#66cf9b" stop-opacity="0.82"/><stop offset="0.88" stop-color="#35d0ba" stop-opacity="0.8"/><stop offset="0.93" stop-color="#34ceb8" stop-opacity="0.8"/><stop offset="0.95" stop-color="#32c5b0" stop-opacity="0.81"/><stop offset="0.96" stop-color="#2eb6a3" stop-opacity="0.82"/><stop offset="0.97" stop-color="#29a190" stop-opacity="0.84"/><stop offset="0.98" stop-color="#228678" stop-opacity="0.87"/><stop offset="0.99" stop-color="#196459" stop-opacity="0.9"/><stop offset="0.99" stop-color="#0f3b35" stop-opacity="0.94"/><stop offset="1" stop-color="#040e0c" stop-opacity="0.99"/><stop offset="1"/></linearGradient><linearGradient id="Dégradé_sans_nom_162" x1="-2.15" y1="153.96" x2="352.37" y2="157.7" gradientUnits="userSpaceOnUse"><stop offset="0" stop-color="#ff9d48"/><stop offset="0" stop-color="#d92027"/><stop offset="0.06" stop-color="#da2427"/><stop offset="0.12" stop-color="#de2f29"/><stop offset="0.18" stop-color="#e4422b"/><stop offset="0.24" stop-color="#ed5d2e"/><stop offset="0.29" stop-color="#f98032"/><stop offset="0.32" stop-color="#ff9234"/><stop offset="0.56" stop-color="#ffc63b" stop-opacity="0.91"/><stop offset="0.59" stop-color="#ffcd3c" stop-opacity="0.9"/><stop offset="0.63" stop-color="#f8cd40" stop-opacity="0.9"/><stop offset="0.7" stop-color="#e5cd4c" stop-opacity="0.91"/><stop offset="0.77" stop-color="#c5ce60" stop-opacity="0.91"/><stop offset="0.85" stop-color="#98cf7c" stop-opacity="0.93"/><stop offset="0.93" stop-color="#60cf9f" stop-opacity="0.94"/><stop offset="0.99" stop-color="#35d0ba" stop-opacity="0.95"/></linearGradient><linearGradient id="Dégradé_sans_nom_266" x1="147.26" y1="114.39" x2="147.91" y2="114.39" gradientUnits="userSpaceOnUse"><stop offset="0" stop-color="#ff9d48"/><stop offset="0" stop-color="#d92027"/><stop offset="0.1" stop-color="#da2427"/><stop offset="0.2" stop-color="#df3129" stop-opacity="0.98"/><stop offset="0.29" stop-color="#e6472b" stop-opacity="0.97"/><stop offset="0.39" stop-color="#f0662f" stop-opacity="0.94"/><stop offset="0.48" stop-color="#fe8e33" stop-opacity="0.9"/><stop offset="0.49" stop-color="#ff9234" stop-opacity="0.9"/><stop offset="0.82" stop-color="#ffb739" stop-opacity="0.9"/><stop offset="1" stop-color="#ffcd3c" stop-opacity="0.9"/><stop offset="1" stop-color="#f8cd40" stop-opacity="0.9"/><stop offset="1" stop-color="#e4cd4d" stop-opacity="0.91"/><stop offset="1" stop-color="#c4ce61" stop-opacity="0.93"/><stop offset="1" stop-color="#97cf7d" stop-opacity="0.95"/><stop offset="1" stop-color="#5dcfa1" stop-opacity="0.98"/><stop offset="1" stop-color="#35d0ba"/><stop offset="1" stop-color="#35ceb8"/><stop offset="1" stop-color="#33c7b2"/><stop offset="1" stop-color="#30bca8"/><stop offset="1" stop-color="#2bab99"/><stop offset="1" stop-color="#269585"/><stop offset="1" stop-color="#1f796d"/><stop offset="1" stop-color="#175950"/><stop offset="1" stop-color="#0d332e"/><stop offset="1" stop-color="#030a09"/><stop offset="1"/></linearGradient><linearGradient id="Dégradé_sans_nom_289" x1="144.88" y1="109.91" x2="147.26" y2="109.91" gradientUnits="userSpaceOnUse"><stop offset="0" stop-color="#ff9a35" stop-opacity="0.9"/><stop offset="0" stop-color="#fff"/><stop offset="0" stop-color="#d92027"/><stop offset="0" stop-color="#e23c2a"/><stop offset="0" stop-color="#eb572d"/><stop offset="0" stop-color="#f36d30"/><stop offset="0" stop-color="#f87e32"/><stop offset="0" stop-color="#fc8933"/><stop offset="0" stop-color="#fe9034"/><stop offset="0" stop-color="#ff9234"/><stop offset="0.88" stop-color="#ffc63b" stop-opacity="0.91"/><stop offset="1" stop-color="#ffcd3c" stop-opacity="0.9"/><stop offset="1" stop-color="#f8cd40" stop-opacity="0.9"/><stop offset="1" stop-color="#e4cd4d" stop-opacity="0.91"/><stop offset="1" stop-color="#c4ce61" stop-opacity="0.93"/><stop offset="1" stop-color="#97cf7d" stop-opacity="0.95"/><stop offset="1" stop-color="#5dcfa1" stop-opacity="0.98"/><stop offset="1" stop-color="#35d0ba"/><stop offset="1" stop-color="#35ceb8"/><stop offset="1" stop-color="#33c7b2"/><stop offset="1" stop-color="#30bca8"/><stop offset="1" stop-color="#2bab99"/><stop offset="1" stop-color="#269585"/><stop offset="1" stop-color="#1f796d"/><stop offset="1" stop-color="#175950"/><stop offset="1" stop-color="#0d332e"/><stop offset="1" stop-color="#030a09"/><stop offset="1"/></linearGradient><linearGradient id="Dégradé_sans_nom_159" x1="276.29" y1="299.22" x2="360.43" y2="142.16" gradientUnits="userSpaceOnUse"><stop offset="0" stop-color="#fff"/><stop offset="0" stop-color="#ffcd3c" stop-opacity="0.9"/><stop offset="0.28" stop-color="#f8cd40" stop-opacity="0.9"/><stop offset="0.58" stop-color="#eacd49" stop-opacity="0.9"/><stop offset="0.66" stop-color="#e7cd4b" stop-opacity="0.9"/><stop offset="0.73" stop-color="#dccd52" stop-opacity="0.9"/><stop offset="0.79" stop-color="#cace5d" stop-opacity="0.9"/><stop offset="0.84" stop-color="#b1ce6c" stop-opacity="0.9"/><stop offset="0.89" stop-color="#91cf80" stop-opacity="0.9"/><stop offset="0.94" stop-color="#6acf99" stop-opacity="0.9"/><stop offset="0.98" stop-color="#40d0b3" stop-opacity="0.9"/></linearGradient><linearGradient id="Dégradé_sans_nom_109" x1="289.69" y1="306.51" x2="290.13" y2="306.51" gradientUnits="userSpaceOnUse"><stop offset="0" stop-color="#fff"/><stop offset="0" stop-color="#d92027"/><stop offset="0.43" stop-color="#ff9234" stop-opacity="0.9"/><stop offset="1" stop-color="#ffcd3c" stop-opacity="0.9"/><stop offset="1" stop-color="#f8cd40" stop-opacity="0.9"/><stop offset="1" stop-color="#e6cd4c" stop-opacity="0.89"/><stop offset="1" stop-color="#c7ce5f" stop-opacity="0.87"/><stop offset="1" stop-color="#9cce79" stop-opacity="0.85"/><stop offset="1" stop-color="#66cf9b" stop-opacity="0.82"/><stop offset="1" stop-color="#35d0ba" stop-opacity="0.8"/><stop offset="1" stop-color="#34ceb8" stop-opacity="0.8"/><stop offset="1" stop-color="#32c5b0" stop-opacity="0.81"/><stop offset="1" stop-color="#2eb6a3" stop-opacity="0.82"/><stop offset="1" stop-color="#29a190" stop-opacity="0.84"/><stop offset="1" stop-color="#228678" stop-opacity="0.87"/><stop offset="1" stop-color="#196459" stop-opacity="0.9"/><stop offset="1" stop-color="#0f3b35" stop-opacity="0.94"/><stop offset="1" stop-color="#040e0c" stop-opacity="0.99"/><stop offset="1"/></linearGradient><linearGradient id="Dégradé_sans_nom_3" x1="165.72" y1="230.76" x2="265.81" y2="230.76" gradientUnits="userSpaceOnUse"><stop offset="0.03" stop-color="#ff9234" stop-opacity="0.9"/><stop offset="0.27" stop-color="#ff9735" stop-opacity="0.9"/><stop offset="0.89" stop-color="#ffcd3c"/></linearGradient></defs><g id="Calque_2" data-name="Calque 2"><g id="Calque_1-2" data-name="Calque 1"><path class="cls-1" d="M214,137.84c-1,.57-1.93,1.16-2.87,1.74l-1.87,1.19c-1.56,1-3.08,2-4.54,3,2.49-1.8,4.9-3.39,7.15-4.73C212.51,138.66,213.22,138.25,214,137.84Z"/><path class="cls-2" d="M354.54,114.78c-35.75-11-98.43,1.88-126,15.27h0c-5.21,2.53-10,5.13-14.48,7.78h0c-.76.41-1.47.82-2.13,1.21-2.25,1.34-4.66,2.93-7.15,4.73l-.11.08c-16.16,11.2-27,23.39-34.8,35.91a.25.25,0,0,0,0,.07c-1,1.65-2,3.31-2.94,5-.48.87-.95,1.73-1.41,2.6a144.87,144.87,0,0,0-7,15.42l-.29.73q-.13.36-.27.69l-.48,1.25-.14.38c-.06.17-.11.3-.15.4a.86.86,0,0,0,0,.15.1.1,0,0,0,0,0c-9.26,25.13-16.88,43.15-32.79,62.52-27.68,33.71-68.42,42.41-96.63,40.51H25.84a141.08,141.08,0,0,1-16.08-.71q-5.77-.71-8-3.4l0,0a6.64,6.64,0,0,1-1-1.6,11.26,11.26,0,0,1-.6-6.1A82,82,0,0,1,3.5,284.4L92.64,12.33a24,24,0,0,1,3.13-6.52A11,11,0,0,1,101.46,2,42.7,42.7,0,0,1,112.3.36Q119.22,0,130.62,0q13.17,0,21,.36A52.91,52.91,0,0,1,163.79,2a11.55,11.55,0,0,1,6.26,3.91A23.64,23.64,0,0,1,173.28,13l13.4,40.77c22.3-.56,45,9.83,48.6,10.94-42,3.06-85.38,54.38-85.38,54.38-.14-.32-1-1.76-2-4.06-.21-.47-.43-1-.65-1.51l-2.38-7.3a.14.14,0,0,1,0-.06l-9.78-29.88L130,60h-.23L88.84,190.31l-.92,3.4-3.36,13.8c13.31-8.94,31-24.74,54.12-52.07l0,0v0q5.59-6.6,11.59-14.12c.86-1.08,1.73-2.17,2.6-3.28q2.34-3,4.74-5.76c.51-.59,1-1.18,1.53-1.77.26-.31.53-.62.81-.92l1.75-1.94s0,0,0,0q2.66-2.86,5.33-5.52l.16-.15q3.56-3.53,7.17-6.67h0a144.75,144.75,0,0,1,14.94-11.46q3.19-2.15,6.4-4.05a136.79,136.79,0,0,1,18-9,140.29,140.29,0,0,1,32.69-9l.11,0C301.31,73.62,354.54,114.78,354.54,114.78Z"/><path class="cls-3" d="M147.91,115.07a1.4,1.4,0,0,0-.1.16l-.55-1.67C147.48,114.1,147.7,114.6,147.91,115.07Z"/><path class="cls-4" d="M147.26,113.56a53.15,53.15,0,0,1-2.38-7.3Z"/><text/><path d="M288.52,281.68a53.81,53.81,0,0,0-.48,7.82,51.73,51.73,0,0,1,.62-7.75Z"/><path class="cls-5" d="M365.48,252.54q2.43,11.76.11,21.26a42.6,42.6,0,0,1-8,16.65,46.66,46.66,0,0,1-14.08,11.77,64.17,64.17,0,0,1-18.21,6.66q-19.14,4-35.16-2.31l-.21-.08-.22-.09S256,270,272.13,262.62c11-5,34-9,24.43,1-4.62,4.83-6.91,11-7.9,17.13-.05.31-.1.62-.14.93a53.81,53.81,0,0,0-.48,7.82,51.73,51.73,0,0,1,.62-7.75Q306,290.63,323.45,287q26.52-5.47,21.92-27.74A23.67,23.67,0,0,0,340.88,249a27.15,27.15,0,0,0-7.75-6.54,46.67,46.67,0,0,0-10.35-4.23q-5.77-1.62-12.4-3.32a135.63,135.63,0,0,1-16.41-5.4,47.36,47.36,0,0,1-12.54-7.4,38.51,38.51,0,0,1-8.89-10.82,54,54,0,0,1-5.43-15.48,46.51,46.51,0,0,1,0-20.55,43.29,43.29,0,0,1,7.83-16.61,47.12,47.12,0,0,1,13.6-11.92A56.92,56.92,0,0,1,298.84,142a41.25,41.25,0,0,1,17.89-3.52c30.72,1.45,47.3-1.53,40.47-18.82,0,0,0,0,0,0,2.45,5.18,24.53,61.05-2.44,55.86-53.08-10.21-76.59-9.7-62.63,23.86,0,0,2,3.25,2,3.27a1.92,1.92,0,0,1-.34-.18,22.37,22.37,0,0,0,4.16,3.28,39.72,39.72,0,0,0,9.56,4.15q5.46,1.62,12.36,3.41a144.2,144.2,0,0,1,16.68,5.18,53.79,53.79,0,0,1,13.28,7.25,39.15,39.15,0,0,1,9.72,10.81A49.84,49.84,0,0,1,365.48,252.54Z"/><path class="cls-6" d="M290.13,306.62l-.44-.22.22.09.21.08A.09.09,0,0,1,290.13,306.62Z"/><path class="cls-7" d="M263.88,302.59c-1.64,1.66-4.55,2.67-8.72,3.08s-9.9.58-17.2.58q-11.39,0-17.76-.34a41.61,41.61,0,0,1-9.71-1.43l-25.94-79.25c-22.49,26.65-16.17,72.4-18.66,26.83-3.74-68.3,53.13-95.95,54.85-96.77a.07.07,0,0,0,0,0l41.53,126.35a85.94,85.94,0,0,1,3.35,13.51C266.11,298.44,265.51,300.93,263.88,302.59Z"/></g></g></svg>